<svg version="1.1" id="Layer_1" xmlns="http://www.w3.org/2000/svg" xmlns:xlink="http://www.w3.org/1999/xlink" x="0px" y="0px"
	 viewBox="0 0 32 32" style="enable-background:new 0 0 32 32;" xml:space="preserve">
<g>
	<path d="M30.6,18.5l1.6-1.9l-2.1,1.7c-0.1,0.7-0.1,1.4-0.2,2h-3.4l-0.8-0.8c0.4-0.4,1-1.1,1.5-1.3c0.6-0.2,1.5-0.1,2.1-0.1l1.7-2.7
		l-1.9,2.4c-0.7,0-1.5-0.3-2.2-0.1c-0.6,0.2-1.3,0.9-1.8,1.2l-1.4-1.4c0.9-0.9,1.9-0.8,3.2-0.9l1.2,1l-1.1-1.3l-2-0.2l1.2-1.3
		l2.8-0.1l1.6-1.7L29,14.6l-2.9-0.1L24,16.3c-0.9,0.8-1.1,0.7-2.4,0.7l2.9-3.6l-3.4,3.1l-0.1-1.8l0.9-0.9h0v0l2-2.2l-0.1-2l1.8-2
		l-2,1.9c0,0.7,0,1.3-0.1,2L21.9,13c0-0.4-0.1-0.8-0.1-1.2l-0.6-0.5l0.6-0.9c-0.1-0.3-0.1-0.6-0.2-0.9l-0.2,0.8l-0.8,0.5L20,10.4
		l1.3,1.6l-0.2,1.7h0l-0.7,0.7c0,0.9-0.1,1.7-0.1,2.6l-2.7,0l-0.1-1.8l1.7-1.9l-2,1.8c-0.1,1.7-0.2,3.5-0.3,5.2h-0.7l0-5.8
		c1.8-0.6,1.9-6.8-0.1-7.1c-2.3-0.3-2.2,6.3-0.4,7c-0.2,1.9,0,3.9,0,5.9h-0.6c-0.1-1.7-0.2-3.5-0.3-5.2l-2-1.8l1.7,1.9L14.5,17h-2.7
		c0-0.9-0.1-1.7-0.1-2.6L11,13.8h0l-0.2-1.7l1.3-1.6L11.4,11l0,0l-0.9-0.6l-0.2-0.8c-0.1,0.3-0.1,0.6-0.2,0.9l0.7,1l-0.4,0.3
		c0,0.4-0.1,0.8-0.1,1.2l-1.8-1.6c0-0.7,0-1.3-0.1-2l-2-1.9l1.8,2c0,0.7,0,1.4-0.1,2l2,2.2v0h0l0.9,0.9L11,16.5l-3.4-3.1l2.9,3.6
		c-1.2,0-1.5,0.1-2.3-0.7l-2.1-1.9l-2.9,0.1l-1.6-1.5l1.6,1.7l2.8,0.1l1.2,1.3l-2,0.2L4,17.7l1.2-1c1.3,0.1,2.3-0.1,3.2,0.9
		l-1.3,1.3c-0.5-0.3-1.2-1-1.7-1.2c-0.6-0.2-1.5,0.1-2.1,0.1l-1.9-2.4L3,18.2c0.6,0,1.5-0.1,2,0.1c0.5,0.2,1,0.8,1.5,1.2l-0.9,0.9
		l0,0l-3.5,0c-0.1-0.7-0.1-1.4-0.2-2l-2.1-1.7l1.6,1.9l-0.2,1.8l-1.3,0V21H26l0,0l0,0h5.8v-0.7h-1.1L30.6,18.5z M14.4,18.7l-4.9,0.4
		l4.9,0.4l0,0.8l-7.5,0l2.5-2.5h5.2L14.4,18.7z M15.1,11L15.1,11c0-0.5,0.1-3,1-3c0.9,0,1,2.5,1,3s-0.1,2.9-0.9,3
		C15.2,14,15.1,11.4,15.1,11z M17.8,20.3l0-0.8l4.9-0.4l-4.9-0.4l0-0.9h5.2l2.5,2.5L17.8,20.3z"/>
	<path d="M29.8,23.8c-0.5-0.6-0.5-2,0-2.6h-4.1c0.5,0.6,0.5,2,0,2.6H29.8z"/>
	<path d="M20.5,23.8c-0.5-0.6-0.5-2,0-2.6h-4.1c0.5,0.6,0.5,2,0,2.6H20.5z"/>
	<path d="M31.9,23.8v-2.6h-1.6c0.2,0.2,0.3,0.7,0.3,1.3c0,0.6-0.1,1.1-0.3,1.3H31.9z"/>
	<path d="M25.1,23.8c-0.5-0.6-0.5-2,0-2.6H21c0.5,0.6,0.5,2,0,2.6H25.1z"/>
	<rect x="0.1" y="24.1" width="31.8" height="0.5"/>
	<path d="M15.8,23.8c-0.5-0.6-0.5-2,0-2.6h-4.1c0.5,0.6,0.5,2,0,2.6H15.8z"/>
	<path d="M0.1,21.2v2.6h1.8c-0.5-0.6-0.5-2,0-2.6H0.1z"/>
	<path d="M11.2,23.8c-0.5-0.6-0.5-2,0-2.6H7c0.5,0.6,0.5,2,0,2.6H11.2z"/>
	<path d="M6.5,23.8c-0.5-0.6-0.5-2,0-2.6H2.4c0.5,0.6,0.5,2,0,2.6H6.5z"/>
</g>
</svg>
